<svg width="61" height="18" viewBox="0 0 61 18" fill="white" xmlns="http://www.w3.org/2000/svg">
<path d="M4.28125 8.36667V0.25H6.33125V3.45H10.7146V0.25H12.8813V8.36667H10.7479V4.8H6.33125V8.36667H4.28125Z" fill="white"/>
<path d="M16.7336 8.36667H14.6836V0.25H16.7336V8.36667Z" fill="white"/>
<path d="M17.5156 0.25H26.3156V1.6H23.0323V8.36667H20.899V1.6H17.5323V0.25H17.5156Z" fill="white"/>
<path d="M24.4844 8.36667L28.251 0.25H30.901L34.701 8.36667H32.3677L31.6177 6.65H27.5844L26.901 8.36667H24.4844ZM31.1344 5.3L29.6177 1.65L28.0677 5.3H31.1344Z" fill="white"/>
<path d="M44.668 8.36667V0.25H46.8013V3.45H51.1846V0.25H53.268V8.36667H51.218V4.8H46.8013V8.36667H44.668Z" fill="white"/>
<path d="M57.1008 8.36667H55.0508V0.25H57.1008V8.36667Z" fill="white"/>
<path d="M41.2656 2.98333C41.2823 2.13333 40.7656 1.33333 39.0656 1.31667C36.8656 1.3 36.649 3.26667 36.649 4.31667C36.6323 6.58333 37.599 7.25 39.1823 7.28333C40.7323 7.31667 41.2823 6.31667 41.2656 5.46667H43.549C43.449 7.5 42.0656 8.51667 39.1823 8.55C35.749 8.58333 34.2656 6.7 34.2656 4.31667C34.2656 1.95 35.7156 0 39.0823 0C41.4823 0 43.349 0.95 43.449 2.98333H41.2656Z" fill="white"/>
<path d="M2.45 15.7167H1.33333C1.33333 15.7167 1.33333 12 1.33333 11.75C1.33333 11.5 1.41667 11.1334 0.716667 11.1334H0.5V10.85C0.5 10.85 2.05 10.7834 2.46667 10.65L2.45 15.7167Z" fill="white"/>
<path d="M44.8354 15.7499H43.8021C43.8021 15.7499 43.8021 12.0333 43.8021 11.7833C43.8021 11.5333 43.8854 11.0499 43.1854 11.0499H42.9688V10.7666C42.9688 10.7666 44.8188 10.7666 45.2521 10.7666L47.7688 14.5166V10.7666H48.8021V15.7666H47.5354L44.8688 11.8499L44.8354 15.7499Z" fill="white"/>
<path d="M33.7172 15.75H32.7505C32.7505 15.75 32.7505 11.9167 32.7505 11.65C32.7505 11.4667 32.8339 11.0333 32.3339 11.0333H32.1172V10.7C32.1172 10.7 33.3005 10.6333 33.7172 10.5V12.9C33.7172 12.9 34.1505 12.15 35.0505 12.15C35.9505 12.15 36.1505 12.8333 36.1505 13.2833C36.1505 13.7333 36.1505 15.75 36.1505 15.75H35.2339V13.2667C35.2339 13.2667 35.1839 12.8167 34.6839 12.8167C34.1839 12.8167 33.7339 13.3333 33.7339 13.7333C33.7339 14.15 33.7172 15.75 33.7172 15.75Z" fill="white"/>
<path d="M3.56458 12.6666L3.53125 12.4C3.53125 12.4 4.94792 12.2166 5.11458 12.1666V12.9C5.11458 12.9 5.61458 12.1666 6.48125 12.1666C7.34792 12.1666 7.54792 12.8666 7.54792 13.1C7.54792 13.3166 7.54792 15.75 7.54792 15.75H6.58125C6.58125 15.75 6.58125 13.2833 6.58125 13.15C6.58125 13.0166 6.46458 12.75 6.08125 12.75C5.69792 12.75 5.14792 13.4 5.14792 13.6833C5.14792 13.9833 5.14792 15.7333 5.14792 15.7333H4.14792C4.14792 15.7333 4.14792 13.2666 4.14792 13.0333C4.14792 12.8333 4.18125 12.6666 3.56458 12.6666Z" fill="white"/>
<path d="M11.1187 13.05V12.2667C11.1187 12.2667 10.4354 12.15 10.0354 12.15C9.63542 12.15 8.71875 12.3334 8.71875 13.1834C8.71875 14.3 10.5521 14.3167 10.5521 14.9667C10.5521 15.5167 9.51875 15.5334 8.83542 15.05C8.78542 15.0167 8.71875 15.05 8.71875 15.05V15.75C8.71875 15.75 9.28542 15.8667 9.83542 15.8667C10.3854 15.8667 11.4021 15.6834 11.4021 14.7834C11.4021 13.7 9.51875 13.45 9.51875 12.95C9.50208 12.4334 10.6021 12.55 11.1187 13.05Z" fill="white"/>
<path d="M12.5339 13.1166C12.5339 12.9 12.4839 12.6833 11.8672 12.6833V12.3833C11.8672 12.3833 13.3172 12.25 13.4505 12.1666V12.6333H13.6005C13.6005 12.6333 13.8005 12.1833 14.5339 12.1833C15.2672 12.1833 16.0339 12.6166 16.0339 13.9666C16.0339 15.3166 15.4339 15.85 14.5339 15.85C13.6339 15.85 13.5839 15.4833 13.5839 15.4833H13.4339V17.2666H12.5339V13.1166ZM13.4839 14.1166C13.4839 15.0833 13.8839 15.35 14.2339 15.35C14.6005 15.35 15.0172 15.1166 15.0172 13.9333C15.0172 12.75 14.4339 12.7 14.2339 12.7C13.8339 12.6833 13.4839 13.15 13.4839 14.1166Z" fill="white"/>
<path d="M17.3687 13.0667C17.3687 12.85 17.3521 12.6833 16.7188 12.6833V12.4167C16.7188 12.4167 18.1354 12.2333 18.3021 12.1833V12.9167V15.75H17.3687V13.0667Z" fill="white"/>
<path d="M18.4323 11.1833C18.4323 11.4666 18.1656 11.7 17.849 11.7C17.5323 11.7 17.2656 11.4666 17.2656 11.1833C17.2656 10.9 17.5323 10.6666 17.849 10.6666C18.1823 10.6666 18.4323 10.9 18.4323 11.1833Z" fill="white"/>
<path d="M19.9323 15.7334V13.1C19.9323 12.8834 19.8823 12.6667 19.2656 12.6667V12.3667C19.2656 12.3667 20.7156 12.2334 20.849 12.15V12.7834H20.9323C20.9323 12.7834 21.2323 12.15 21.899 12.15C22.1823 12.15 22.3823 12.1834 22.3823 12.1834V13.0667C22.3823 13.0667 22.1156 12.9167 21.8823 12.9167C21.649 12.9167 20.899 13.1667 20.899 13.75C20.899 14.35 20.899 15.7334 20.899 15.7334H19.9323Z" fill="white"/>
<path d="M53.2344 12.2167V12.5167C53.2344 12.5167 53.6844 12.5 53.8677 12.6833C54.051 12.8667 54.7844 13.85 54.7844 13.85L53.801 15H54.8844L55.301 14.5833L56.2344 15.7833H57.3677L54.6844 12.2167H53.2344Z" fill="white"/>
<path d="M25.2813 13.2666H23.8646C23.8646 13.2666 23.9146 12.5333 24.5979 12.5333C25.2646 12.55 25.2813 13.2666 25.2813 13.2666ZM24.5646 12.1333C23.9646 12.1333 22.7812 12.2333 22.7812 13.8833C22.7812 15.55 24.0646 15.8833 24.9146 15.8833C25.7646 15.8833 26.1313 15.65 26.1313 15.65V15.1333C26.1313 15.1333 25.7646 15.3333 25.2813 15.3333C23.9146 15.3333 23.8313 13.6833 23.8313 13.6833H26.2146C26.2313 12.2666 25.1812 12.1333 24.5646 12.1333Z" fill="white"/>
<path d="M39.5664 13.2666H38.1497C38.1497 13.2666 38.1997 12.5333 38.8831 12.5333C39.5497 12.55 39.5664 13.2666 39.5664 13.2666ZM38.8497 12.1333C38.2497 12.1333 37.0664 12.2333 37.0664 13.8833C37.0664 15.55 38.3497 15.8833 39.1997 15.8833C40.0497 15.8833 40.4164 15.65 40.4164 15.65V15.1333C40.4164 15.1333 40.0497 15.3333 39.5664 15.3333C38.1997 15.3333 38.1164 13.6833 38.1164 13.6833H40.4997C40.5164 12.2666 39.4664 12.1333 38.8497 12.1333Z" fill="white"/>
<path d="M52.1836 13.2666H50.7503C50.7503 13.2666 50.8169 12.5333 51.4836 12.5333C52.1503 12.55 52.1836 13.2666 52.1836 13.2666ZM51.4669 12.1333C50.8669 12.1333 49.6836 12.2333 49.6836 13.8833C49.6836 15.55 50.9669 15.8833 51.8169 15.8833C52.6669 15.8833 53.0336 15.65 53.0336 15.65V15.1333C53.0336 15.1333 52.6669 15.3333 52.1836 15.3333C50.8169 15.3333 50.7336 13.6833 50.7336 13.6833H53.1169C53.1169 12.2666 52.0669 12.1333 51.4669 12.1333Z" fill="white"/>
<path d="M28.9844 12.65V12.2334H29.651V11.15H30.601V12.2334H31.6844V12.65H30.601C30.601 12.65 30.601 14.8834 30.601 15.05C30.601 15.3 30.901 15.3667 31.5677 15.3667C31.5677 15.45 31.5677 15.7834 31.5677 15.7834C31.5677 15.7834 31.351 15.8834 30.851 15.8834C30.351 15.8834 29.601 15.8167 29.601 15.1334C29.601 14.45 29.601 12.65 29.601 12.65H28.9844Z" fill="white"/>
<path d="M57.8008 12.65V12.2334H58.4674V11.15H59.4174V12.2334H60.5008V12.65H59.4174C59.4174 12.65 59.4174 14.8834 59.4174 15.05C59.4174 15.3 59.7174 15.3667 60.3841 15.3667C60.3841 15.45 60.3841 15.7834 60.3841 15.7834C60.3841 15.7834 60.1674 15.8834 59.6674 15.8834C59.1674 15.8834 58.4174 15.8167 58.4174 15.1334C58.4174 14.45 58.4174 12.65 58.4174 12.65H57.8008Z" fill="white"/>
<path d="M55.6172 13.3501L56.4505 12.2334H57.5005L56.5172 13.3501H55.6172Z" fill="white"/>
<path d="M58.6339 9.66663H59.7505L58.4672 11.15H57.3672L58.6339 9.66663Z" fill="#E73137"/>
</svg>
