<svg xmlns="http://www.w3.org/2000/svg" width="201" height="28" viewBox="0 0 201 28" fill="white">
<path d="M32.083 5.10547L36.4963 5.10547V11.954L42.7255 11.954V5.10547L47.1388 5.10547V23.1867L42.7255 23.1867V15.6506L36.4963 15.6506V23.1867H32.083V5.10547Z" fill="white"/>
<path d="M49.3086 5.10547L53.3672 5.10547V8.43896H49.3086V5.10547ZM49.3086 10.2138H53.3672V23.15H49.3086V10.2138Z" fill="white"/>
<path d="M60.357 23.3332C59.7517 23.3332 59.2186 23.2965 58.7195 23.1884C58.2205 23.0803 57.7936 22.8987 57.4388 22.609C57.0821 22.356 56.7975 21.9562 56.585 21.5216C56.3706 21.0871 56.3004 20.471 56.3004 19.7815V12.8248H54.5908V10.2155H56.3004V6.12109L60.2508 6.12109V10.2155H62.5636V12.7881H60.2508V18.8757C60.2508 19.3836 60.3931 19.7101 60.6416 19.8896C60.8901 20.0711 61.2469 20.1425 61.6738 20.1425H62.5997V23.1496C62.4213 23.1863 62.1367 23.2577 61.78 23.2945C61.4232 23.3312 60.8901 23.3312 60.357 23.3312V23.3332Z" fill="white"/>
<path d="M68.0023 23.519C67.361 23.519 66.7918 23.4455 66.2587 23.266C65.7255 23.0844 65.2626 22.8315 64.8697 22.505C64.4789 22.1786 64.1943 21.7441 63.9799 21.2728C63.7654 20.7649 63.6592 20.2222 63.6592 19.5694C63.6592 18.8819 63.8015 18.2658 64.05 17.7945C64.2985 17.3232 64.6553 16.9254 65.1183 16.599C65.5812 16.2726 66.0803 16.0564 66.6836 15.8748C67.2528 15.6932 67.8941 15.5851 68.5695 15.477C69.7801 15.3321 70.5978 15.1506 71.0608 14.969C71.5598 14.7874 71.7723 14.461 71.7723 14.0265C71.7723 13.5919 71.63 13.2655 71.3815 13.0126C71.1329 12.7596 70.67 12.6147 70.0647 12.6147C69.4233 12.6147 68.9263 12.7596 68.6056 13.0493C68.2849 13.339 68.0725 13.7368 68.0003 14.2815H64.2625C64.2625 13.6654 64.4048 13.086 64.6533 12.5413C64.9018 11.9986 65.2586 11.5274 65.7215 11.1275C66.1845 10.7297 66.7898 10.4033 67.5013 10.1483C68.2128 9.89532 69.0666 9.78516 69.9925 9.78516C70.9185 9.78516 71.7723 9.8586 72.4136 10.0381C73.0891 10.2197 73.6242 10.4727 74.1232 10.8358C74.6564 11.2336 75.0853 11.7416 75.3338 12.3944C75.5823 13.0105 75.7246 13.7347 75.7246 14.5324V21.0545C75.7246 21.5625 75.7607 21.9971 75.7968 22.2868C75.8329 22.5764 75.9752 22.7947 76.1535 22.9029V23.0844H72.2373C72.1311 22.9396 72.0589 22.758 71.9887 22.505C71.9166 22.2521 71.8465 21.9624 71.8104 21.636H71.7743C71.3835 22.1786 70.9205 22.6152 70.3152 22.9396C69.7099 23.266 68.9624 23.519 68.0023 23.519ZM69.3191 20.873C70.0667 20.873 70.708 20.6547 71.171 20.2569C71.634 19.8223 71.8825 19.2776 71.8825 18.5534V16.9948C71.634 17.1396 71.3133 17.2478 70.9566 17.3579C70.5998 17.466 70.209 17.5762 69.8182 17.6843C69.0345 17.8659 68.4653 18.0822 68.1086 18.3372C67.7518 18.5901 67.5754 18.9533 67.5754 19.4245C67.5754 19.9325 67.7538 20.3303 68.0745 20.5486C68.3952 20.7669 68.786 20.875 69.3211 20.875L69.3191 20.873Z" fill="white"/>
<path d="M83.8893 23.5887C82.8571 23.5887 81.9311 23.4071 81.1134 23.0807C80.2937 22.7543 79.5822 22.2463 78.9769 21.6323C78.3716 21.0182 77.9447 20.2919 77.6241 19.4575C77.3034 18.6231 77.125 17.7173 77.125 16.7401C77.125 15.7629 77.2673 14.8551 77.588 14.0228C77.9087 13.1884 78.3356 12.4641 78.9408 11.848C79.51 11.2319 80.2215 10.7607 81.0413 10.3996C81.861 10.0732 82.7849 9.8916 83.783 9.8916C84.6368 9.8916 85.4205 9.99973 86.132 10.2547C86.8435 10.5077 87.4488 10.8341 87.9478 11.2687C88.4469 11.7032 88.8738 12.2479 89.1945 12.8273C89.5151 13.4434 89.7276 14.0962 89.7997 14.8204H85.8835C85.7412 14.241 85.5267 13.7698 85.172 13.4067C84.8152 13.0802 84.3883 12.8987 83.783 12.8987C82.8932 12.8987 82.2518 13.2251 81.8249 13.9126C81.398 14.6001 81.1836 15.5426 81.1836 16.7034C81.1836 17.8642 81.398 18.8047 81.8249 19.4575C82.2518 20.1104 82.8932 20.4714 83.783 20.4714C85.0637 20.4714 85.8113 19.7105 85.9897 18.262H89.8699C89.8338 19.023 89.6915 19.7105 89.3708 20.3633C89.0502 21.0161 88.6593 21.5588 88.1603 22.0668C87.6612 22.5748 87.0219 22.9359 86.2743 23.1909C85.5989 23.4438 84.7791 23.5887 83.8893 23.5887Z" fill="white"/>
<path d="M91.2118 5.10547L95.2704 5.10547V11.8459H95.3425C95.8055 11.2298 96.3386 10.7218 96.9078 10.3974C97.477 10.0731 98.2246 9.88945 99.1145 9.88945C99.826 9.88945 100.431 9.99758 100.966 10.2526C101.499 10.5056 101.962 10.832 102.355 11.2665C102.746 11.701 103.031 12.209 103.209 12.8251C103.387 13.4412 103.494 14.0941 103.494 14.8183V23.2254L99.4351 23.2254V15.6527C99.4351 14.9652 99.2568 14.4205 98.9361 13.9859C98.6154 13.5514 98.1164 13.3698 97.4409 13.3698C96.7655 13.3698 96.2304 13.6228 95.8035 14.1308C95.4127 14.6388 95.1982 15.2895 95.1982 16.0872V23.2254H91.1396L91.2118 5.10751V5.10547Z" fill="white"/>
<path d="M105.379 5.10547L109.437 5.10547V8.43896H105.379V5.10547ZM105.379 10.2138H109.437V23.15H105.379V10.2138Z" fill="white"/>
<path d="M114.206 5.10547L118.762 5.10547L121.538 14.598C121.644 14.9244 121.716 15.2855 121.822 15.6486C121.928 16.0117 122.001 16.3728 122.071 16.6992C122.143 17.0624 122.249 17.4235 122.355 17.7866H122.391C122.498 17.4235 122.57 17.0624 122.676 16.6992C122.748 16.3728 122.854 16.0464 122.925 15.6486C122.997 15.2855 123.103 14.9244 123.209 14.598L125.985 5.10547L130.434 5.10547L124.596 23.1867H120.04L114.202 5.10547H114.206Z" fill="white"/>
<path d="M133.403 23.519C132.761 23.519 132.192 23.4455 131.659 23.266C131.126 23.0844 130.663 22.8315 130.27 22.505C129.879 22.1786 129.595 21.7441 129.38 21.2728C129.166 20.7649 129.06 20.2222 129.06 19.5694C129.06 18.8819 129.202 18.2658 129.45 17.7945C129.699 17.3232 130.056 16.9254 130.519 16.599C130.982 16.2726 131.481 16.0564 132.084 15.8748C132.653 15.6932 133.295 15.5851 133.97 15.477C135.18 15.3321 135.998 15.1506 136.461 14.969C136.96 14.7874 137.173 14.461 137.173 14.0265C137.173 13.5919 137.03 13.2655 136.782 13.0126C136.533 12.7596 136.07 12.6147 135.465 12.6147C134.824 12.6147 134.327 12.7596 134.006 13.0493C133.685 13.339 133.473 13.7368 133.401 14.2815H129.663C129.663 13.6654 129.805 13.086 130.054 12.5413C130.302 11.9986 130.659 11.5274 131.122 11.1275C131.585 10.7297 132.19 10.4033 132.902 10.1483C133.613 9.89532 134.467 9.78516 135.393 9.78516C136.319 9.78516 137.173 9.8586 137.814 10.0381C138.489 10.2197 139.025 10.4727 139.524 10.8358C140.057 11.2336 140.486 11.7416 140.734 12.3944C140.983 13.0105 141.125 13.7347 141.125 14.5324V21.0545C141.125 21.5625 141.161 21.9971 141.197 22.2868C141.233 22.5764 141.376 22.7947 141.554 22.9029V23.0844H137.638C137.531 22.9396 137.459 22.758 137.389 22.505C137.317 22.2521 137.247 21.9624 137.211 21.636H137.175C136.784 22.1786 136.321 22.6152 135.716 22.9396C135.11 23.266 134.363 23.519 133.403 23.519ZM134.683 20.873C135.431 20.873 136.072 20.6547 136.535 20.2569C136.998 19.8591 137.247 19.2776 137.247 18.5534V16.9948C136.962 17.1396 136.678 17.2478 136.321 17.3579C135.964 17.466 135.573 17.5762 135.182 17.6843C134.399 17.8659 133.83 18.0822 133.473 18.3372C133.116 18.5922 132.94 18.9533 132.94 19.4245C132.94 19.9325 133.118 20.3303 133.439 20.5486C133.796 20.7669 134.186 20.875 134.685 20.875L134.683 20.873Z" fill="white"/>
<path d="M143.072 10.218H146.988V11.9929H147.061C147.56 11.3054 148.093 10.7607 148.698 10.3996C149.339 10.0365 150.087 9.85693 150.977 9.85693C151.688 9.85693 152.294 9.96506 152.829 10.2201C153.362 10.473 153.825 10.7994 154.218 11.234C154.608 11.6685 154.893 12.1765 155.071 12.7926C155.286 13.4087 155.356 14.0615 155.356 14.7858V23.1929H151.297V15.6202C151.297 14.9326 151.119 14.3879 150.798 13.9534C150.478 13.5189 149.979 13.3373 149.303 13.3373C148.628 13.3373 148.093 13.5903 147.666 14.0983C147.275 14.6062 147.061 15.257 147.061 16.0547V23.2296H143.002L143.074 10.2221L143.072 10.218Z" fill="white"/>
<path d="M162.059 23.3332C161.454 23.3332 160.921 23.2965 160.422 23.1884C159.923 23.0803 159.496 22.8987 159.141 22.609C158.784 22.3193 158.5 21.9562 158.287 21.5216C158.073 21.0871 158.003 20.471 158.003 19.7815V12.8248H156.293V10.2155H158.003V6.12109L161.953 6.12109V10.2155H164.266V12.7881H161.953V18.8757C161.953 19.3836 162.095 19.7101 162.344 19.8896C162.592 20.0711 162.949 20.1425 163.376 20.1425H164.266V23.1496C164.087 23.1863 163.803 23.2577 163.446 23.2945C163.089 23.3312 162.592 23.3312 162.057 23.3312L162.059 23.3332Z" fill="white"/>
<path d="M169.693 23.519C169.051 23.519 168.482 23.4455 167.949 23.266C167.416 23.0844 166.953 22.8315 166.56 22.505C166.169 22.1786 165.885 21.7441 165.67 21.2728C165.456 20.7649 165.35 20.2222 165.35 19.5694C165.35 18.8819 165.492 18.2658 165.74 17.7945C165.989 17.3232 166.346 16.9254 166.809 16.599C167.272 16.2726 167.771 16.0564 168.374 15.8748C168.979 15.6932 169.585 15.5851 170.26 15.477C171.434 15.3321 172.288 15.1506 172.751 14.969C173.214 14.7874 173.463 14.461 173.463 14.0265C173.463 13.5919 173.32 13.2655 173.036 13.0126C172.751 12.7596 172.324 12.6147 171.719 12.6147C171.078 12.6147 170.581 12.7596 170.26 13.0493C169.939 13.339 169.727 13.7368 169.655 14.2815H165.917C165.917 13.6654 166.059 13.086 166.308 12.5413C166.556 11.9986 166.913 11.5274 167.376 11.1275C167.839 10.7297 168.444 10.4033 169.156 10.1483C169.867 9.89532 170.687 9.78516 171.647 9.78516C172.607 9.78516 173.427 9.8586 174.068 10.0381C174.743 10.2197 175.279 10.4727 175.778 10.8358C176.311 11.2336 176.74 11.7416 176.988 12.3944C177.237 13.0105 177.379 13.7347 177.379 14.5324V21.0545C177.379 21.5625 177.415 21.9971 177.451 22.2868C177.487 22.5764 177.63 22.7947 177.808 22.9029V23.0844H173.892C173.785 22.9396 173.713 22.758 173.643 22.505C173.571 22.2521 173.537 21.9624 173.465 21.636H173.429C173.038 22.1786 172.575 22.6152 171.97 22.9396C171.364 23.266 170.653 23.519 169.691 23.519H169.693ZM171.01 20.873C171.757 20.873 172.398 20.6547 172.861 20.2569C173.324 19.8591 173.573 19.2776 173.573 18.5534V16.9948C173.288 17.1396 173.004 17.2478 172.647 17.3579C172.29 17.466 171.899 17.5762 171.509 17.6843C170.725 17.8659 170.156 18.0822 169.799 18.3372C169.442 18.5922 169.266 18.9533 169.266 19.4245C169.266 19.9325 169.444 20.3303 169.765 20.5486C170.086 20.7669 170.512 20.875 171.012 20.875L171.01 20.873Z" fill="white"/>
<path d="M179.389 10.2162H183.269V12.2461H183.341C183.804 11.4852 184.303 10.9058 184.836 10.5427C185.369 10.1795 186.047 10 186.83 10C187.221 10 187.472 10.0367 187.614 10.1081V13.6599H187.508C186.261 13.4783 185.265 13.6966 184.554 14.3127C183.842 14.9288 183.449 15.9427 183.449 17.3565V23.1911H179.391V10.2203L179.389 10.2162Z" fill="white"/>
<path d="M192.3 23.519C191.659 23.519 191.09 23.4455 190.557 23.266C190.023 23.0844 189.56 22.8315 189.168 22.505C188.777 22.1786 188.492 21.7441 188.278 21.2728C188.063 20.7649 187.957 20.2222 187.957 19.5694C187.957 18.8819 188.099 18.2658 188.348 17.7945C188.596 17.3232 188.953 16.9254 189.416 16.599C189.879 16.2726 190.378 16.0564 190.981 15.8748C191.587 15.6932 192.192 15.5851 192.867 15.477C194.042 15.3321 194.896 15.1506 195.359 14.969C195.822 14.7874 196.07 14.461 196.07 14.0265C196.07 13.5919 195.928 13.2655 195.643 13.0126C195.359 12.7596 194.932 12.6147 194.326 12.6147C193.685 12.6147 193.188 12.7596 192.867 13.0493C192.547 13.339 192.334 13.7368 192.262 14.2815H188.524C188.524 13.6654 188.667 13.086 188.915 12.5413C189.164 11.9986 189.52 11.5274 189.983 11.1275C190.446 10.7297 191.052 10.4033 191.763 10.1483C192.475 9.89532 193.294 9.78516 194.254 9.78516C195.214 9.78516 196.034 9.8586 196.675 10.0381C197.351 10.2197 197.886 10.4727 198.385 10.8358C198.918 11.2336 199.347 11.7416 199.596 12.3944C199.844 13.0105 199.986 13.7347 199.986 14.5324V21.0545C199.986 21.5625 200.022 21.9971 200.059 22.2868C200.095 22.5764 200.237 22.7947 200.415 22.9029V23.0844H196.499C196.393 22.9396 196.321 22.758 196.251 22.505C196.178 22.2521 196.144 21.9624 196.072 21.636H196.036C195.645 22.1786 195.182 22.6152 194.577 22.9396C193.972 23.266 193.26 23.519 192.298 23.519H192.3ZM193.581 20.873C194.328 20.873 194.97 20.6547 195.433 20.2569C195.896 19.8591 196.144 19.2776 196.144 18.5534V16.9948C195.86 17.1396 195.575 17.2478 195.218 17.3579C194.862 17.466 194.471 17.5762 194.08 17.6843C193.296 17.8659 192.727 18.0822 192.37 18.3372C192.014 18.5901 191.837 18.9533 191.837 19.4245C191.837 19.9325 192.016 20.3303 192.336 20.5486C192.657 20.7669 193.084 20.875 193.583 20.875L193.581 20.873Z" fill="white"/>
<path d="M15.8414 3.36934C19.8639 4.31186 22.9965 7.53722 23.9585 11.5949C24.2792 12.972 25.2392 14.0226 26.6642 14.1675C25.2412 14.2756 24.2792 15.3262 23.9585 16.74C22.9965 20.7977 19.8639 24.0231 15.8414 25.0023C14.4886 25.3287 13.4564 26.3059 13.3141 27.7564C13.2079 26.308 12.1396 25.3287 10.7867 25.0023C6.80034 24.0598 3.63166 20.8344 2.70571 16.74C2.38503 15.363 1.45908 14.3123 0 14.1675C1.423 14.0593 2.34895 12.972 2.70571 11.5949C3.66774 7.53722 6.80034 4.31186 10.7867 3.36934C12.1396 3.04293 13.1718 2.06573 13.3141 0.615234C13.4203 2.06369 14.4525 3.04293 15.8414 3.36934ZM13.3141 18.623C15.7352 18.623 17.6933 16.6298 17.6933 14.2022C17.6933 11.7745 15.7352 9.74458 13.3141 9.74458C10.893 9.74458 8.97092 11.7377 8.97092 14.2022C8.97092 16.6666 10.893 18.623 13.3141 18.623ZM7.54792 7.49846L12.2458 7.49846L12.2458 5.36046C10.43 5.57874 8.82862 6.33969 7.54792 7.49846ZM14.4184 7.49846H19.0822C17.8015 6.33969 16.1641 5.57874 14.3843 5.36046L14.4204 7.49846H14.4184ZM13.3141 23.0418C15.9837 23.0418 17.551 22.2074 19.0802 20.8324L7.54592 20.8324C9.07714 22.2095 11.1054 23.0418 13.3121 23.0418H13.3141ZM13.3141 16.3748C14.5246 16.3748 15.5207 15.3609 15.5207 14.1654C15.5207 12.9699 14.5587 11.956 13.3141 11.956C12.0695 11.956 11.1435 12.9353 11.1435 14.1654C11.1435 15.3976 12.1055 16.3748 13.3141 16.3748ZM8.4378 18.621C7.40562 17.4622 6.76427 15.8669 6.76427 14.2001C6.76427 12.5334 7.40562 10.9401 8.4378 9.74254H5.76817C5.02059 11.0462 4.59369 12.568 4.59369 14.2001C4.59369 15.8322 5.02059 17.3153 5.76817 18.621H8.4378ZM20.862 18.621C21.6096 17.3174 22.0365 15.7955 22.0365 14.2001C22.0365 12.6048 21.6096 11.0482 20.862 9.74254H18.1563C19.1885 10.938 19.8298 12.4599 19.8298 14.2001C19.8298 15.9403 19.1885 17.4602 18.1563 18.621H20.862Z" fill="white"/>
</svg>